<svg width="60" height="60" viewBox="0 0 60 60" fill="none" xmlns="http://www.w3.org/2000/svg">
<path d="M40.445 17.5068C40.0602 17.6884 39.691 17.8928 39.3374 18.12C38.895 18.404 38.535 18.6208 38.2574 18.7704C37.4158 19.224 36.5662 19.7412 35.7086 20.322C35.6518 20.3604 35.6118 20.4028 35.5886 20.4492C35.571 20.4836 35.5434 20.504 35.5058 20.5104L35.3438 20.5392" stroke="#FFB53C" stroke-width="2"/>
<path d="M26.8386 38.8247C25.973 39.3431 25.1162 39.8475 24.2682 40.3379C23.421 40.8287 22.359 41.3423 21.5994 41.7827C21.3402 41.9331 20.9158 42.2179 20.3262 42.6371" stroke="#FFB53C" stroke-width="2"/>
<path d="M41.496 31.4136C40.9816 32.0128 40.4492 32.4632 39.8988 32.7648C39.1756 33.1616 38.3944 33.272 37.5552 33.096C36.7044 32.9184 36.186 32.3532 35.7624 31.6332C35.6776 31.4892 35.6236 31.5 35.6004 31.6656C35.412 33.0168 35.7744 34.2768 36.3684 35.5128C36.55 35.892 36.8044 36.2236 37.1316 36.5076C37.1431 36.5177 37.1522 36.5303 37.1581 36.5444C37.1641 36.5585 37.1669 36.5737 37.1662 36.589C37.1655 36.6042 37.1614 36.619 37.1541 36.6323C37.1469 36.6457 37.1368 36.6572 37.1244 36.666C36.71 36.9684 36.3044 37.2248 35.9076 37.4352C35.1588 37.8328 34.2597 38.2036 33.2101 38.5476C32.4453 38.798 31.3856 38.96 30.0312 39.0336" stroke="#73D8C6" stroke-width="2"/>
<path d="M37.5099 43.9874L34.3395 43.9478C34.2981 43.947 34.257 43.9557 34.2193 43.9732C34.1817 43.9906 34.1485 44.0164 34.1223 44.0486C33.9455 44.2662 33.8347 44.5138 33.7899 44.7914C33.7411 45.1018 33.7479 45.3322 33.8103 45.4826" stroke="#30B3A4" stroke-width="2"/>
<path d="M40.4442 17.5069C40.0594 17.6885 39.6902 17.8929 39.3366 18.1201C38.8942 18.4041 38.5342 18.6209 38.2566 18.7705C37.415 19.2241 36.5654 19.7413 35.7078 20.3221C35.651 20.3605 35.611 20.4029 35.5878 20.4493C35.5702 20.4837 35.5426 20.5041 35.505 20.5105L35.343 20.5393C34.7198 20.5449 34.0958 20.5485 33.471 20.5501C33.1366 20.5509 32.8218 20.5253 32.5266 20.4733C32.1978 20.4157 31.877 20.3657 31.5642 20.3233C29.9354 20.1033 28.3726 20.2813 26.8758 20.8573C26.5814 20.9709 26.285 21.0965 25.9866 21.2341C25.1874 21.6037 24.3318 22.1521 23.835 22.7329C23.5886 23.0217 23.3374 23.3097 23.0814 23.5969C22.3626 24.4033 21.7962 25.4353 21.4602 26.3797C21.309 26.8053 21.1658 27.3857 21.0306 28.1209C20.9186 28.7321 20.8614 29.3045 20.859 29.8381C20.8566 30.8677 21.0282 31.7509 21.243 32.7253C21.3294 33.1181 21.4366 33.4605 21.5646 33.7525C21.9714 34.6801 22.5354 35.7121 23.2638 36.4177C23.5626 36.7069 23.8086 37.0177 24.135 37.2865C24.9254 37.9345 25.8266 38.4473 26.8386 38.8249C25.973 39.3433 25.1162 39.8477 24.2682 40.3381C23.421 40.8289 22.359 41.3425 21.5994 41.7829C21.3402 41.9333 20.9158 42.2181 20.3262 42.6373C18.9246 41.5873 17.8146 40.3657 16.8066 38.9713C16.5506 38.6169 16.3166 38.2349 16.1046 37.8253C15.7438 37.1253 15.4322 36.4649 15.1698 35.8441C14.9482 35.3209 14.7098 34.5341 14.4546 33.4837C14.3474 33.0429 14.2554 32.4765 14.1786 31.7845C14.0994 31.0629 14.0594 30.3789 14.0586 29.7325C14.0578 27.9901 14.3538 26.2201 14.9466 24.4225C15.0306 24.1681 15.131 23.9037 15.2478 23.6293C15.3678 23.3453 15.4906 23.0825 15.6162 22.8409C15.9354 22.2241 16.2186 21.6097 16.6206 21.0253C16.919 20.5917 17.2018 20.2069 17.469 19.8709C17.7618 19.5037 18.129 19.0861 18.5706 18.6181C19.4066 17.7309 20.3438 16.9793 21.3822 16.3633C21.9118 16.0497 22.433 15.7605 22.9458 15.4957C24.6802 14.5989 26.5718 14.0525 28.6206 13.8565C30.6182 13.6661 32.6474 13.8761 34.7082 14.4865C35.4066 14.6937 36.1238 14.9737 36.8598 15.3265C38.1498 15.9445 39.3342 16.6153 40.4442 17.5069Z" fill="#FFC64D"/>
<path d="M40.445 17.5068C40.7462 17.7744 41.0438 18.0372 41.3066 18.3444C41.5718 18.6528 41.9066 18.858 42.1766 19.1592C42.323 19.3216 42.4741 19.4864 42.6301 19.6536C42.7885 19.8228 42.9697 20.07 42.8353 20.3076C42.7481 20.462 42.5997 20.538 42.3901 20.5356C40.0421 20.5148 37.6933 20.516 35.3438 20.5392L35.5058 20.5104C35.5434 20.504 35.571 20.4836 35.5886 20.4492C35.6118 20.4028 35.6518 20.3604 35.7086 20.322C36.5662 19.7412 37.4157 19.224 38.2573 18.7704C38.5349 18.6208 38.8949 18.404 39.3373 18.12C39.6909 17.8928 40.0602 17.6884 40.445 17.5068Z" fill="#FFA32A"/>
<path d="M41.498 31.4134C40.9836 32.0126 40.4512 32.463 39.9008 32.7646C39.1776 33.1614 38.3964 33.2718 37.5572 33.0958C36.7064 32.9182 36.188 32.353 35.7644 31.633C35.6796 31.489 35.6256 31.4998 35.6024 31.6654C35.414 33.0166 35.7764 34.2766 36.3704 35.5126C36.552 35.8918 36.8064 36.2234 37.1336 36.5074C37.1451 36.5176 37.1541 36.5302 37.1601 36.5442C37.1661 36.5583 37.1688 36.5736 37.1681 36.5888C37.1674 36.604 37.1633 36.6188 37.1561 36.6322C37.1489 36.6455 37.1387 36.657 37.1264 36.6658C36.712 36.9682 36.3064 37.2246 35.9096 37.435C35.1608 37.8326 34.2616 38.2034 33.212 38.5474C32.4472 38.7978 31.3876 38.9598 30.0332 39.0334C30.5596 38.3238 30.932 37.7754 31.1504 37.3882C31.3624 37.013 31.5576 36.6914 31.736 36.4234C32.1448 35.809 32.3528 35.4962 32.36 35.485C32.7284 34.8886 33.0896 34.2394 33.5228 33.6958C33.7184 33.451 33.8096 33.1558 33.9812 32.893C34.354 32.3202 34.738 31.7306 35.1332 31.1242C35.4652 30.613 35.8032 30.0542 36.1472 29.4478C36.368 29.0566 36.582 28.7114 36.7892 28.4122C37.0236 28.0746 37.2588 27.7426 37.4948 27.4162C37.4997 27.4096 37.5027 27.4017 37.5034 27.3935C37.504 27.3853 37.5024 27.377 37.4987 27.3697C37.4949 27.3623 37.4892 27.3561 37.4822 27.3519C37.4751 27.3476 37.467 27.3453 37.4588 27.3454C35.87 27.3438 34.1904 27.3454 32.42 27.3502C31.8692 27.3526 31.4396 27.1774 31.0124 26.8102C30.1316 26.0534 29.8648 25.071 30.212 23.863C30.3728 23.3038 30.8312 22.8838 31.3268 22.5634C31.6804 22.3346 32.0892 22.2198 32.5532 22.219C35.9548 22.2126 39.3476 22.2122 42.7316 22.2178C43.1724 22.2186 43.5856 22.3502 43.9712 22.6126C44.99 23.3062 45.3812 24.439 45.0452 25.5982C44.966 25.8734 44.8152 26.1826 44.5928 26.5258C44.252 27.055 43.904 27.5794 43.6316 28.1554C43.4612 28.5166 43.19 28.8274 42.98 29.179C42.512 29.9654 42.018 30.7102 41.498 31.4134Z" fill="#A8E3D2"/>
<path d="M41.4971 31.4136C41.1099 32.1896 40.6859 32.9292 40.2251 33.6324C39.8891 34.146 39.6647 34.4936 39.5519 34.6752C39.2543 35.1516 38.9219 35.6148 38.6699 36.1212C38.5799 36.2988 38.4395 36.4596 38.3315 36.6348C37.9283 37.2884 37.5043 37.9464 37.0595 38.6088C37.0059 38.6888 37.0275 38.7284 37.1243 38.7276C38.8355 38.714 40.5035 38.7064 42.1283 38.7048C42.4883 38.7036 43.0331 38.7216 43.3667 38.8656C45.4295 39.7608 45.6011 42.3768 43.7087 43.5804C43.4991 43.714 43.1927 43.8124 42.7895 43.8756C42.4911 43.922 42.1991 43.9456 41.9135 43.9464C40.4351 43.9496 39.0287 43.9512 37.6943 43.9512C37.6631 43.9512 37.6327 43.9564 37.6031 43.9668C37.5463 43.986 37.5151 43.9928 37.5095 43.9872L34.3391 43.9476C34.2976 43.9468 34.2565 43.9555 34.2189 43.973C34.1813 43.9904 34.1481 44.0162 34.1219 44.0484C33.9451 44.266 33.8343 44.5136 33.7895 44.7912C33.7407 45.1016 33.7475 45.332 33.8099 45.4824C33.0235 45.6648 32.2235 45.7912 31.4099 45.8616C29.7331 46.0056 28.0827 45.8876 26.4587 45.5076C26.3003 45.4708 26.1479 45.4264 26.0015 45.3744C25.9599 45.36 25.9519 45.3348 25.9775 45.2988C26.1743 45.0264 26.2739 44.7072 26.4683 44.4288C27.3515 43.1576 28.0795 42.0604 28.6523 41.1372C29.1755 40.2948 29.6355 39.5936 30.0323 39.0336C31.3867 38.96 32.4463 38.798 33.2111 38.5476C34.2607 38.2036 35.1599 37.8328 35.9087 37.4352C36.3055 37.2248 36.7111 36.9684 37.1255 36.666C37.1378 36.6572 37.148 36.6457 37.1552 36.6323C37.1624 36.619 37.1666 36.6042 37.1672 36.589C37.1679 36.5737 37.1652 36.5585 37.1592 36.5444C37.1532 36.5303 37.1442 36.5177 37.1327 36.5076C36.8055 36.2236 36.5511 35.892 36.3695 35.5128C35.7755 34.2768 35.4131 33.0168 35.6015 31.6656C35.6247 31.5 35.6787 31.4892 35.7635 31.6332C36.1871 32.3532 36.7055 32.9184 37.5563 33.096C38.3955 33.272 39.1767 33.1616 39.8999 32.7648C40.4503 32.4632 40.9827 32.0128 41.4971 31.4136Z" fill="#3DCCB9"/>
<path d="M26.8386 38.8247L27.9258 39.1595C27.9738 39.1747 27.9814 39.2015 27.9486 39.2399C27.7794 39.4355 27.6078 39.6287 27.4746 39.8483C27.1586 40.3723 26.8046 40.8871 26.4126 41.3927C26.2722 41.5739 26.2146 41.7551 26.1006 41.9375C25.8302 42.3703 25.5522 42.7995 25.2666 43.2251C24.939 43.7147 24.561 44.1551 24.2754 44.6759C24.2587 44.7064 24.2308 44.7292 24.1975 44.7397C24.1643 44.7502 24.1281 44.7475 24.0966 44.7323C23.4582 44.4243 22.8122 44.1143 22.1586 43.8023C21.8634 43.6615 21.5542 43.4799 21.231 43.2575C20.931 43.0519 20.6294 42.8451 20.3262 42.6371C20.9158 42.2179 21.3402 41.9331 21.5994 41.7827C22.359 41.3423 23.421 40.8287 24.2682 40.3379C25.1162 39.8475 25.973 39.3431 26.8386 38.8247Z" fill="#FFA32A"/>
<path d="M37.5099 43.9874C36.3203 44.661 35.0871 45.1594 33.8103 45.4826C33.7479 45.3322 33.7411 45.1018 33.7899 44.7914C33.8347 44.5138 33.9455 44.2662 34.1223 44.0486C34.1485 44.0164 34.1817 43.9906 34.2193 43.9732C34.257 43.9557 34.2981 43.947 34.3395 43.9478L37.5099 43.9874Z" fill="#23998F"/>
</svg>
